<svg xmlns="http://www.w3.org/2000/svg" viewBox="0 0 200 200" width="200" height="200">
  <!-- Background -->
  <rect width="200" height="200" fill="#1a1a2e"/>
  
  <!-- Toad body -->
  <ellipse cx="100" cy="130" rx="60" ry="45" fill="#2d4a3e"/>
  
  <!-- Toad head -->
  <ellipse cx="100" cy="95" rx="50" ry="40" fill="#3d5a4e"/>
  
  <!-- Solid black heart on belly -->
  <path d="M92 140 L100 152 L108 140 Q108 134 100 137 Q92 134 92 140" fill="#0a0a0a"/>
  
  <!-- Studded collar -->
  <path d="M55 105 Q100 115 145 105" stroke="#1a1a1a" stroke-width="6" fill="none"/>
  <circle cx="65" cy="106" r="3" fill="#c0c0c0"/>
  <circle cx="80" cy="109" r="3" fill="#c0c0c0"/>
  <circle cx="100" cy="110" r="3" fill="#c0c0c0"/>
  <circle cx="120" cy="109" r="3" fill="#c0c0c0"/>
  <circle cx="135" cy="106" r="3" fill="#c0c0c0"/>
  
  <!-- Eye bumps -->
  <ellipse cx="70" cy="70" rx="20" ry="18" fill="#3d5a4e"/>
  <ellipse cx="130" cy="70" rx="20" ry="18" fill="#3d5a4e"/>
  
  <!-- Heavy eyeshadow - dark smudgy area around eyes -->
  <ellipse cx="70" cy="68" rx="16" ry="12" fill="#1a0a1a"/>
  <ellipse cx="130" cy="68" rx="16" ry="12" fill="#1a0a1a"/>
  
  <!-- Eyes (white) -->
  <ellipse cx="70" cy="70" rx="11" ry="13" fill="#e8e8e8"/>
  <ellipse cx="130" cy="70" rx="11" ry="13" fill="#e8e8e8"/>
  
  <!-- Pupils (looking down, sad) -->
  <ellipse cx="72" cy="75" rx="6" ry="8" fill="#1a1a1a"/>
  <ellipse cx="132" cy="75" rx="6" ry="8" fill="#1a1a1a"/>
  
  <!-- Simple thick eyeliner on top of eyes -->
  <path d="M59 62 Q70 56 81 62" stroke="#0a0a0a" stroke-width="5" fill="none" stroke-linecap="round"/>
  <path d="M119 62 Q130 56 141 62" stroke="#0a0a0a" stroke-width="5" fill="none" stroke-linecap="round"/>
  
  <!-- Under-eye liner -->
  <path d="M59 80 Q70 85 81 80" stroke="#0a0a0a" stroke-width="3" fill="none" stroke-linecap="round"/>
  <path d="M119 80 Q130 85 141 80" stroke="#0a0a0a" stroke-width="3" fill="none" stroke-linecap="round"/>
  
  <!-- Sad mouth -->
  <path d="M80 95 Q100 88 120 95" stroke="#1a2a1e" stroke-width="3" fill="none" stroke-linecap="round"/>
  
  <!-- Lip piercing - snake bites -->
  <circle cx="85" cy="96" r="2.5" fill="#2a2a2a" stroke="#c0c0c0" stroke-width="1"/>
  <circle cx="115" cy="96" r="2.5" fill="#2a2a2a" stroke="#c0c0c0" stroke-width="1"/>
  
  <!-- Arms -->
  <path d="M45 120 Q30 135 35 150" stroke="#3d5a4e" stroke-width="12" fill="none" stroke-linecap="round"/>
  <path d="M155 120 Q170 135 165 150" stroke="#3d5a4e" stroke-width="12" fill="none" stroke-linecap="round"/>
  
  <!-- Hands with fingers -->
  <ellipse cx="35" cy="155" rx="10" ry="8" fill="#3d5a4e"/>
  <ellipse cx="165" cy="155" rx="10" ry="8" fill="#3d5a4e"/>
  <!-- Fingers left hand -->
  <ellipse cx="28" cy="160" rx="4" ry="6" fill="#3d5a4e"/>
  <ellipse cx="35" cy="163" rx="4" ry="6" fill="#3d5a4e"/>
  <ellipse cx="42" cy="160" rx="4" ry="6" fill="#3d5a4e"/>
  <!-- Fingers right hand -->
  <ellipse cx="158" cy="160" rx="4" ry="6" fill="#3d5a4e"/>
  <ellipse cx="165" cy="163" rx="4" ry="6" fill="#3d5a4e"/>
  <ellipse cx="172" cy="160" rx="4" ry="6" fill="#3d5a4e"/>
  
  <!-- Front feet with toes -->
  <ellipse cx="70" cy="172" rx="12" ry="8" fill="#2d4a3e"/>
  <ellipse cx="130" cy="172" rx="12" ry="8" fill="#2d4a3e"/>
  <!-- Toes left foot -->
  <ellipse cx="62" cy="178" rx="4" ry="5" fill="#2d4a3e"/>
  <ellipse cx="70" cy="180" rx="4" ry="5" fill="#2d4a3e"/>
  <ellipse cx="78" cy="178" rx="4" ry="5" fill="#2d4a3e"/>
  <!-- Toes right foot -->
  <ellipse cx="122" cy="178" rx="4" ry="5" fill="#2d4a3e"/>
  <ellipse cx="130" cy="180" rx="4" ry="5" fill="#2d4a3e"/>
  <ellipse cx="138" cy="178" rx="4" ry="5" fill="#2d4a3e"/>
  
  <!-- Warts/spots -->
  <circle cx="145" cy="85" r="2.5" fill="#2a3a2e"/>
</svg>